<svg width="95" height="102" viewBox="0 0 95 102" fill="none" xmlns="http://www.w3.org/2000/svg">
<path fill-rule="evenodd" clip-rule="evenodd" d="M92.9632 17.2923L72.8703 25.5815L26.3961 77.08L20.2058 97.9154L3.39066 82.7408L23.4836 74.4516L69.9578 22.9532L76.1481 2.11768L92.9632 17.2923Z" fill="#5435DB"/>
<path d="M23.597 11.7985C23.597 18.3146 18.3146 23.597 11.7985 23.597C5.28237 23.597 0 18.3146 0 11.7985C0 5.28237 5.28237 0 11.7985 0C18.3146 0 23.597 5.28237 23.597 11.7985Z" fill="url(#paint0_linear_274_11708)"/>
<path d="M58.6119 11.7985C58.6119 18.3146 53.3296 23.597 46.8134 23.597C40.2973 23.597 35.0149 18.3146 35.0149 11.7985C35.0149 5.28237 40.2973 0 46.8134 0C53.3296 0 58.6119 5.28237 58.6119 11.7985Z" fill="url(#paint1_linear_274_11708)"/>
<path d="M94.3881 11.7985C94.3881 18.3146 89.1057 23.597 82.5896 23.597C76.0734 23.597 70.791 18.3146 70.791 11.7985C70.791 5.28237 76.0734 0 82.5896 0C89.1057 0 94.3881 5.28237 94.3881 11.7985Z" fill="url(#paint2_linear_274_11708)"/>
<path d="M58.6119 50.6194C58.6119 57.1355 53.3296 62.4179 46.8134 62.4179C40.2973 62.4179 35.0149 57.1355 35.0149 50.6194C35.0149 44.1033 40.2973 38.8209 46.8134 38.8209C53.3296 38.8209 58.6119 44.1033 58.6119 50.6194Z" fill="url(#paint3_linear_274_11708)"/>
<path d="M94.3881 50.6194C94.3881 57.1355 89.1057 62.4179 82.5896 62.4179C76.0734 62.4179 70.791 57.1355 70.791 50.6194C70.791 44.1033 76.0734 38.8209 82.5896 38.8209C89.1057 38.8209 94.3881 44.1033 94.3881 50.6194Z" fill="url(#paint4_linear_274_11708)"/>
<path d="M23.597 90.2015C23.597 96.7176 18.3146 102 11.7985 102C5.28237 102 0 96.7176 0 90.2015C0 83.6854 5.28237 78.403 11.7985 78.403C18.3146 78.403 23.597 83.6854 23.597 90.2015Z" fill="url(#paint5_linear_274_11708)"/>
<path d="M94.3881 90.2015C94.3881 96.7176 89.1057 102 82.5896 102C76.0734 102 70.791 96.7176 70.791 90.2015C70.791 83.6854 76.0734 78.403 82.5896 78.403C89.1057 78.403 94.3881 83.6854 94.3881 90.2015Z" fill="url(#paint6_linear_274_11708)"/>
<defs>
<linearGradient id="paint0_linear_274_11708" x1="94" y1="102" x2="47.194" y2="3.72664e-06" gradientUnits="userSpaceOnUse">
<stop stop-color="#5435DB"/>
<stop offset="1" stop-color="#07BE8F"/>
</linearGradient>
<linearGradient id="paint1_linear_274_11708" x1="94" y1="102" x2="47.194" y2="3.72664e-06" gradientUnits="userSpaceOnUse">
<stop stop-color="#5435DB"/>
<stop offset="1" stop-color="#07BE8F"/>
</linearGradient>
<linearGradient id="paint2_linear_274_11708" x1="94" y1="102" x2="47.194" y2="3.72664e-06" gradientUnits="userSpaceOnUse">
<stop stop-color="#5435DB"/>
<stop offset="1" stop-color="#07BE8F"/>
</linearGradient>
<linearGradient id="paint3_linear_274_11708" x1="94" y1="102" x2="47.194" y2="3.72664e-06" gradientUnits="userSpaceOnUse">
<stop stop-color="#5435DB"/>
<stop offset="1" stop-color="#07BE8F"/>
</linearGradient>
<linearGradient id="paint4_linear_274_11708" x1="94" y1="102" x2="47.194" y2="3.72664e-06" gradientUnits="userSpaceOnUse">
<stop stop-color="#5435DB"/>
<stop offset="1" stop-color="#07BE8F"/>
</linearGradient>
<linearGradient id="paint5_linear_274_11708" x1="94" y1="102" x2="47.194" y2="3.72664e-06" gradientUnits="userSpaceOnUse">
<stop stop-color="#5435DB"/>
<stop offset="1" stop-color="#07BE8F"/>
</linearGradient>
<linearGradient id="paint6_linear_274_11708" x1="94" y1="102" x2="47.194" y2="3.72664e-06" gradientUnits="userSpaceOnUse">
<stop stop-color="#5435DB"/>
<stop offset="1" stop-color="#07BE8F"/>
</linearGradient>
</defs>
</svg>
